<svg xmlns="http://www.w3.org/2000/svg" viewBox="0 0 500 500" width="500" height="500"><g><path fill="#ebebeb" d="M0 382.4h500v.25H0zM400.67 393.04h33.12v.25h-33.12zM304.38 392.92h8.69v.25h-8.69zM430.71 398.49h19.19v.25h-19.19zM71.41 401.81h43.19v.25H71.41zM104.56 390.89h6.33v.25h-6.33zM187.55 391.96h60.9v.25h-60.9zM237 337.8H43.91a5.71 5.71 0 01-5.7-5.71V60.66a5.71 5.71 0 015.7-5.66H237a5.71 5.71 0 015.71 5.71v271.38a5.71 5.71 0 01-5.71 5.71zM43.91 55.2a5.46 5.46 0 00-5.45 5.46v271.43a5.46 5.46 0 005.45 5.46H237a5.47 5.47 0 005.46-5.46V60.66A5.47 5.47 0 00237 55.2zM453.31 337.8h-193.1a5.72 5.72 0 01-5.71-5.71V60.66a5.72 5.72 0 015.71-5.66h193.1a5.71 5.71 0 015.69 5.66v271.43a5.71 5.71 0 01-5.69 5.71zM260.21 55.2a5.47 5.47 0 00-5.46 5.46v271.43a5.47 5.47 0 005.46 5.46h193.1a5.47 5.47 0 005.46-5.46V60.66a5.47 5.47 0 00-5.46-5.46z"/><path fill="#f0f0f0" d="M71.11 96.33h357.78v148.89H71.11z"/><path fill="#fafafa" d="M421.89 103.34v134.89H78.11V103.34z"/><path fill="#fff" d="M123.37 238.22l35.26-134.89h26l-35.26 134.89h-26zM155.37 238.22l35.26-134.89h11.63L167 238.22h-11.63zM212.27 238.22l35.27-134.89h26l-35.27 134.89h-26zM277.83 238.22l35.26-134.89h11.64l-35.27 134.89h-11.63z"/><path fill="#e0e0e0" d="M170.21 103.34v134.89h-1.78V103.34zM79.89 103.34v134.89h-1.78V103.34z"/><path fill="#f0f0f0" d="M168.43 103.34v134.89h-7V103.34z"/><path fill="#e0e0e0" d="M257 103.34v134.89h-1.78V103.34z"/><path fill="#f0f0f0" d="M255.22 103.34v134.89h-7V103.34z"/><path fill="#e0e0e0" d="M343.83 103.33v134.89h-1.78V103.33z"/><path fill="#f0f0f0" d="M342.05 103.33v134.89h-7V103.33z"/><path fill="#e0e0e0" d="M430.67 96.33v148.89h-1.78V96.33zM434.67 86.11H65.33a1.56 1.56 0 01-1.55-1.55A1.56 1.56 0 0165.33 83h369.34a1.56 1.56 0 011.55 1.56 1.56 1.56 0 01-1.55 1.55z"/><g opacity=".6"><path fill="#f5f5f5" d="M66.78 80h75.56v271.67H66.78z"/><path fill="#e6e6e6" d="M107.72 353.89h-6.33l1.78-271.67H106l1.72 271.67zM86.75 353.89h-3.06l.86-271.67h1.37l.83 271.67zM128.75 353.89h-3.06l.86-271.67h1.37l.83 271.67z"/></g><g opacity=".6"><path fill="#f5f5f5" d="M356.76 80h75.56v271.67h-75.56z"/><path fill="#e6e6e6" d="M386.37 353.89h-6.33l1.78-271.67h2.83l1.72 271.67zM372.4 353.89h-3.05l.85-271.67h1.37l.83 271.67zM404.73 353.89h-3.05l.86-271.67h1.36l.83 271.67zM420.29 353.89h-3.05l.85-271.67h1.37l.83 271.67z"/></g><path fill="#e6e6e6" d="M339.41 380.7h-14.2v-81.38h14.2z"/><path fill="#f0f0f0" d="M330.68 380.7H160.59v-81.38h170.09z"/><path fill="#e0e0e0" d="M326.86 380.7H167.93v1.7H332.07v-1.7h-5.21z"/><path fill="#fafafa" opacity=".5" d="M325.83 337.25H165.44v-32.84h160.39zM325.83 375.39H165.44v-32.84h160.39z"/><path d="M189.75 320.83a3.61 3.61 0 11-3.61-3.61 3.61 3.61 0 013.61 3.61zM308.73 320.83a3.61 3.61 0 11-3.61-3.61 3.61 3.61 0 013.61 3.61z" fill="#e0e0e0"/><circle cx="186.14" cy="358.97" r="3.61" fill="#e0e0e0"/><path d="M308.73 359a3.61 3.61 0 11-3.61-3.61 3.61 3.61 0 013.61 3.61zM249.24 320.83a3.61 3.61 0 11-3.61-3.61 3.61 3.61 0 013.61 3.61z" fill="#e0e0e0"/><circle cx="245.63" cy="358.97" r="3.61" fill="#e0e0e0"/><path d="M320.16 285.5a13.82 13.82 0 01-27.64 0zM210.89 283a16.29 16.29 0 01-32.58 0zM280.92 289.73a9.59 9.59 0 11-19.18 0z" fill="#f0f0f0"/></g><g><ellipse cx="250" cy="416.24" rx="193.89" ry="11.32" fill="#f5f5f5"/></g><g><path d="M348.15 115.36c-2.13-2.13-6.23-10.2-2.3-14s7.43-.35 7.7 1.5-.45 17.44-5.4 12.5z" fill="#263238"/><path fill="#ff8b7b" d="M347.25 405.65l-8.93.08-2.43-20.64 8.92-.08 2.44 20.64z"/><path d="M338.31 404.7l9.74-.09a.85.85 0 01.8.6l2.36 7.91a1.21 1.21 0 01-1.17 1.6c-3.51 0-8.61-.19-13-.15-5.16 0-7.46.36-13.52.42-3.66 0-5-3.66-3.45-4 6.87-1.59 10.42-1.8 16.17-5.57a3.83 3.83 0 012.07-.72z" fill="#263238"/><path opacity=".2" d="M335.89 385.1l1.26 10.64 8.92-.08-1.25-10.64-8.93.08z"/><path d="M334.62 406.29a13.89 13.89 0 002.86-.35.2.2 0 00.17-.18.21.21 0 00-.12-.21c-.42-.21-4.17-2-5.2-1.37a.65.65 0 00-.3.57 1.25 1.25 0 00.48 1 3.41 3.41 0 002.11.54zm2.14-.64c-1.93.34-3.4.27-4-.21a.81.81 0 01-.31-.69.21.21 0 01.1-.21c.56-.34 2.68.46 4.21 1.11z" fill="#407bff"/><path d="M337.44 406a.24.24 0 00.13-.05.19.19 0 00.07-.2c0-.16-.7-4-2.82-3.76-.56.06-.72.35-.75.57-.15 1 2.14 2.94 3.28 3.42zm-2.44-3.6c1.28 0 1.92 2.09 2.14 3-1.18-.66-2.74-2.18-2.65-2.78 0 0 0-.17.38-.21z" fill="#407bff"/><path d="M340.94 160.43l-.92 1-.86.85c-.57.56-1.16 1.09-1.75 1.61q-1.76 1.58-3.6 3a70 70 0 01-7.8 5.38c-1.37.81-2.78 1.58-4.21 2.31s-2.94 1.36-4.46 2a44.75 44.75 0 01-9.68 2.65l-.74.11a11 11 0 01-1.45.09 9 9 0 01-3.25-.64 8.85 8.85 0 01-2.77-1.77 10.13 10.13 0 01-1.66-2.06 13.57 13.57 0 01-1.43-3.51 21.61 21.61 0 01-.53-2.9 32.76 32.76 0 01-.15-5.09c.07-1.62.2-3.18.38-4.71.38-3.07.92-6 1.58-9s1.41-5.77 2.38-8.67l6.57 1.3c-.24 5.62-.51 11.38-.33 16.82a40.71 40.71 0 00.8 7.52 8.3 8.3 0 00.41 1.34c.14.34.31.55.3.46a1.06 1.06 0 00-.27-.4 3.05 3.05 0 00-.94-.62 3.57 3.57 0 00-1.13-.27h-.37.11l.21-.06a37.75 37.75 0 006.88-2.5 59.41 59.41 0 006.69-3.78c2.17-1.44 4.31-3 6.37-4.65 1-.82 2.05-1.68 3-2.55l1.46-1.32.7-.65.61-.58z" fill="#ff8b7b"/><path d="M346.23 156.9c-.34-9.43-8.08-12.71-17.78-6.28a132.1 132.1 0 00-12.33 8.85l6.27 20.14s12-3.81 18.94-11.29c4.67-5.08 5.02-8.21 4.9-11.42z" fill="#263238"/><path d="M334.42 160.92s-5.79 8.28-7.84 17.08a56.71 56.71 0 008.2-4.32z" opacity=".2"/><path d="M306.26 145.37l3.36-7.59-9.51-2.78s-1.63 3.63-.7 9.86z" fill="#ff8b7b"/><path fill="#ff8b7b" d="M310.63 128.88l-8.27.99-2.25 5.13 9.51 2.78 1.01-8.9z"/><path d="M334.48 225.26s-6.14 51.46-6.82 79c-.7 28.61 4.91 86.32 4.91 86.32l16.11-.34s1.94-61.78 4.28-90.09c2.54-30.86 8.94-75.45 8.94-75.45z" fill="#407bff"/><path d="M334.48 225.26s-6.14 51.46-6.82 79c-.7 28.61 4.91 86.32 4.91 86.32l16.11-.34s1.94-61.78 4.28-90.09c2.54-30.86 8.94-75.45 8.94-75.45z" fill="#fff" opacity=".6"/><path d="M353.67 239.83c-7.2 15.87-5.27 51.32-1.18 66.52.15-2.21.31-4.3.47-6.23 1.67-20.34 5-46.63 7.11-62.2-1.96-2.84-4.15-3.06-6.4 1.91z" opacity=".2"/><path fill="#407bff" d="M350.66 390.93l-18.94.38-1.4-6.29 20.11-.05.23 5.96z"/><path fill="#ff8b7b" d="M387.04 405.65l-8.92.08-2.43-20.64 8.92-.08 2.43 20.64z"/><path d="M378.1 404.7l9.75-.09a.86.86 0 01.8.6l2.36 7.91a1.22 1.22 0 01-1.17 1.6c-3.52 0-8.61-.19-13-.15-5.16 0-7.47.36-13.52.42-3.66 0-5-3.66-3.45-4 6.86-1.59 10.41-1.8 16.17-5.57a3.8 3.8 0 012.06-.72z" fill="#263238"/><path opacity=".2" d="M375.69 385.1l1.25 10.64 8.93-.08-1.25-10.64-8.93.08z"/><path d="M374.42 406.29a14.07 14.07 0 002.86-.35.19.19 0 00.16-.18.2.2 0 00-.11-.21c-.43-.21-4.18-2-5.2-1.37a.63.63 0 00-.3.57 1.27 1.27 0 00.47 1 3.46 3.46 0 002.12.54zm2.14-.64c-1.93.34-3.4.27-4-.21a.85.85 0 01-.32-.69.21.21 0 01.1-.21c.56-.34 2.66.46 4.22 1.11z" fill="#407bff"/><path d="M377.23 406a.22.22 0 00.21-.25c0-.16-.7-4-2.82-3.76-.56.06-.72.35-.76.57-.14 1 2.15 2.94 3.29 3.42zm-2.43-3.6c1.27 0 1.92 2.09 2.14 3-1.18-.66-2.75-2.18-2.66-2.78 0 0 0-.17.38-.21zM350.2 224.92s4.45 55.37 7.7 82.69c3.37 28.42 14.47 82.94 14.47 82.94l16.11-.34s-4.42-61.9-6.13-90.26C380.48 269 380 224.24 380 224.24z" fill="#407bff"/><path d="M350.2 224.92s4.45 55.37 7.7 82.69c3.37 28.42 14.47 82.94 14.47 82.94l16.11-.34s-4.42-61.9-6.13-90.26C380.48 269 380 224.24 380 224.24z" fill="#fff" opacity=".6"/><path fill="#407bff" d="M390.46 390.93l-18.95.38-1.39-6.29 20.11-.05.23 5.96z"/><path d="M333.37 148.15s-6.59 24.46 1.11 77.11c14.38-.31 38.53-.87 45.52-1 .18-7.33-5.23-43.27 1.1-77.92a93.57 93.57 0 00-13.78-1.34 174.4 174.4 0 00-20.28.44 89.49 89.49 0 00-13.67 2.71z" fill="#263238"/><path d="M378.34 171l-7.45-6.17c.49 4.82 4.85 16.63 7.15 22.61-.04-5.24.01-10.77.3-16.44z" opacity=".2"/><path d="M351.69 162.33l-8.13 16.09a1.79 1.79 0 002.42 2.4l5.31-2.92a1.75 1.75 0 011.85.12l5.23 3.77a1.73 1.73 0 002.64-2l-6.11-17.18a1.75 1.75 0 00-3.21-.28z" fill="#fff"/><path d="M364.82 122.16c-1.14 6.56-2.16 18.54 2.5 22.79 0 0-1.36 5.94-13.77 8-8.34-2.68-6.51-7.52-6.51-7.52 7.24-1.9 6.93-7.29 5.56-12.33z" fill="#ff8b7b"/><path d="M359.84 126.61l-7.24 6.44a21.06 21.06 0 01.7 3.59c2.78-.46 6.53-3.6 6.76-6.51a9.73 9.73 0 00-.22-3.52z" opacity=".2"/><path d="M368.79 114.09c-2.41 8.52-3.38 13.63-8.7 17.12-8 5.24-17.81-1-18-10.09-.18-8.16 3.78-20.73 13-22.33a12.08 12.08 0 0113.7 15.3z" fill="#ff8b7b"/><path d="M363.66 119.31c-1.12-2.72-1.93-11.68 2.74-13.88s9.52 3.17 8.29 5.71c-1.89 3.94-8.43 14.47-11.03 8.17z" fill="#263238"/><path d="M366.45 108.59c-1.15-3-14.86-4.7-16.78-7.93-2.28-3.84 7.07-4.3 13.5-2.35 5.65 1.72 9.42 3.38 8.76 7.58-.37 2.38-5.48 2.7-5.48 2.7z" fill="#263238"/><path d="M369.43 105.5s3 .82 4.64-1.38c-.52 2.18-3.07 4.38-4.64 1.38zM355.7 96.25c-4.12-3.2-9.73.56-9.2 4.73s14.42 7.34 14.42 7.34.25-7.82-5.22-12.07z" fill="#263238"/><path d="M346.51 101c.63 2.92 2.76 5.21 7.07 6.91a15.65 15.65 0 01-5.43-7.31zM355.16 113.66c-.15.71-.64 1.2-1.1 1.1s-.71-.76-.56-1.46.65-1.19 1.11-1.09.71.79.55 1.45zM347.22 111.94c-.16.7-.65 1.19-1.11 1.09s-.71-.75-.56-1.45.65-1.19 1.11-1.1.71.76.56 1.46z" fill="#263238"/><path d="M349.67 112.84a25.57 25.57 0 01-4.67 5.28c1 1.43 3.23 1.36 3.23 1.36z" fill="#ff5652"/><path d="M349.85 121.87a6 6 0 005.4-1.31.21.21 0 000-.3.22.22 0 00-.3 0 5.72 5.72 0 01-5 1.19.21.21 0 00-.09.42zM358.11 111.62a.43.43 0 00.48-.59 4.23 4.23 0 00-3-2.44.43.43 0 00-.48.36.42.42 0 00.35.48 3.33 3.33 0 012.35 1.95.43.43 0 00.3.24zM344.32 108.45a.4.4 0 00.43-.15 3.38 3.38 0 012.73-1.36.42.42 0 10.08-.84 4.17 4.17 0 00-3.47 1.68.41.41 0 00.07.59.35.35 0 00.16.08z" fill="#263238"/><path d="M383.28 153.16c1.82 3.18 3.34 6.26 4.92 9.43s3 6.36 4.35 9.62 2.66 6.57 3.8 10a101.49 101.49 0 013 10.43l.61 2.73a16.6 16.6 0 01.34 3.9 19.5 19.5 0 01-1.59 7.06 31.78 31.78 0 01-7.11 10 58.5 58.5 0 01-8.7 6.93c-1.51 1-3.07 1.92-4.64 2.8s-3.13 1.69-4.88 2.46l-3.32-5.81c1.21-1 2.54-2 3.78-3.08s2.45-2.18 3.65-3.28a62.08 62.08 0 006.43-6.95 23.2 23.2 0 004-7.14 8 8 0 00.36-3 5.2 5.2 0 00-.23-1.2l-.68-2.24a157.78 157.78 0 00-7.2-18.21c-1.37-3-2.83-6-4.29-9s-3-6-4.49-8.85z" fill="#ff8b7b"/><path d="M381.44 146.39c8.34 1.8 14.14 23.56 14.14 23.56l-14.91 13.53a57.76 57.76 0 01-11-18c-3.95-10.89 2.85-21.03 11.77-19.09z" fill="#263238"/><path d="M371.87 221.68l-9.59.1 6 9.67s6.83-1.69 7.44-5.12zM356.31 227.49l5.29 7.76 6.63-3.8-5.95-9.67-5.97 5.71zM371.41 121.89a8.45 8.45 0 01-5 4.06c-2.84.83-4.29-1.7-3.53-4.39.69-2.42 3-5.77 5.84-5.42s3.96 3.34 2.69 5.75z" fill="#ff8b7b"/></g><g><path fill="#407bff" d="M275.752 288.12l10.662-.774.072.998-10.662.773zM290.758 287.035l5.236-.38.072.998-5.236.38z"/><path d="M342 169.27L165.44 182a14 14 0 00-12.88 14.89l6 83.22A14 14 0 00173.47 293l10-.72a2.75 2.75 0 012.94 2.54l1.12 15.42a1.5 1.5 0 002.64.88l16.74-19.35a4.07 4.07 0 012.77-1.39L350 280.27a14 14 0 0012.89-14.89l-6-83.22A14 14 0 00342 169.27z" fill="#407bff"/><path d="M191.23 220.2l9.54-.69.78 10.8 10.42-.75-.78-10.8 9.58-.7 2.23 30.86-9.58.69-.9-12.48-10.42.76.9 12.48-9.53.69z" fill="#fff"/><path d="M165.44 182a14 14 0 00-12.88 14.89l6 83.22A14 14 0 00173.47 293l1.47-.11a11.12 11.12 0 0010.12-9l20.11-104.76z" opacity=".2"/><path d="M252.93 237.66l-17.18 1.24a5.52 5.52 0 001.34 3 4 4 0 003.34 1.22 4.93 4.93 0 002.36-.8 5.69 5.69 0 001.39-1.52l8.5.17a12.08 12.08 0 01-4.33 5.16q-2.62 1.66-7.74 2a16.21 16.21 0 01-7.08-.75 10.32 10.32 0 01-4.51-3.67 12.06 12.06 0 01-2.13-6.29 11.28 11.28 0 012.74-8.73q3.12-3.48 9-3.91a16.61 16.61 0 017.68.9 9.86 9.86 0 014.53 3.91 15.51 15.51 0 012 7.07zm-9-3.48a5.75 5.75 0 00-1.59-3.46 4.21 4.21 0 00-6.07 1 6 6 0 00-.78 3.09zM255.58 215.55l8.59-.62 2.23 30.85-8.59.62zM269.93 214.51l8.59-.62 2.23 30.85-8.58.62zM284.37 233.31a11.21 11.21 0 012.84-8.68q3.21-3.57 9.09-4 6.7-.48 10.42 3.16a12.21 12.21 0 01.51 16.23q-3.18 3.54-9.22 4a13.34 13.34 0 01-8.92-2.1 11 11 0 01-4.72-8.61zm8.59-.64a6.7 6.7 0 001.53 4.33 4 4 0 006.08-.42 7 7 0 00.86-4.61 6.59 6.59 0 00-1.51-4.24 3.72 3.72 0 00-3.07-1.2 3.87 3.87 0 00-3 1.66 6.61 6.61 0 00-.85 4.48zM312.77 211.41l9.15-.66.51 7-.75 14.25-5.66.41-2.75-14zm2 23.28l8.54-.62.55 7.56-8.55.61z" fill="#fff"/></g><g><path d="M163 154.6a26.44 26.44 0 00.23 4.38 58.62 58.62 0 01-28.15 2.23 25.73 25.73 0 00.82-5.23 15.75 15.75 0 01-1.83 5.06c-1.78-.34-2.78-.63-2.78-.63s1.82-9.84-1.46-17-1.64-11.16.84-12.29c4.6-14.14 21.89-11.91 27.74-6.17 7.42 7.28 7.46 27.79 8.78 32.48-1.09.47-2.16.9-3.23 1.28a13.35 13.35 0 01-.96-4.11z" fill="#263238"/><path d="M170.15 176.61l.9 2.85c.33 1 .66 2 1 2.95.67 2 1.37 4 2.12 5.92s1.47 3.94 2.25 5.9l1.16 3 .29.74.07.17a1.35 1.35 0 00-.42-.25c-.22-.08-.31 0-.17 0a2.41 2.41 0 00.71-.11 10.88 10.88 0 002.24-1 40.76 40.76 0 004.88-3.34c1.62-1.26 3.21-2.61 4.77-4s3.13-2.84 4.64-4.26l3.07 2.6c-1.28 1.84-2.63 3.52-4 5.23s-2.91 3.31-4.49 4.9a39.35 39.35 0 01-5.29 4.52 18 18 0 01-3.47 1.9 9.59 9.59 0 01-2.42.62 6.55 6.55 0 01-3.32-.45 6.31 6.31 0 01-2.8-2.34c-.15-.23-.29-.46-.4-.67l-.27-.54-.36-.73c-.47-1-1-2-1.41-2.94-.91-2-1.82-4-2.65-6s-1.64-4.06-2.41-6.12c-.36-1-.72-2.09-1.06-3.14s-.67-2.08-1-3.31z" fill="#ffc3bd"/><path d="M167.78 167.73c3.45.88 5.86 15.06 5.86 15.06l-9.5 6.46s-9.1-14.31-6.45-18.1c2.76-3.94 5.06-4.7 10.09-3.42z" fill="#407bff"/><path d="M167.78 167.73c3.45.88 5.86 15.06 5.86 15.06l-9.5 6.46s-9.1-14.31-6.45-18.1c2.76-3.94 5.06-4.7 10.09-3.42z" fill="#407bff"/><path d="M167.78 167.73c3.45.88 5.86 15.06 5.86 15.06l-9.5 6.46s-9.1-14.31-6.45-18.1c2.76-3.94 5.06-4.7 10.09-3.42z" fill="#fff" opacity=".4"/><path opacity=".3" d="M167.47 170.9l2.65 14.29-5.34 3.62 2.69-17.91z"/><path d="M194.43 185.52l3.17-7.64 3.91 7.64s-2.54 3.8-5.89 2.87z" fill="#ffc3bd"/><path fill="#ffc3bd" d="M201.09 177.09l5.02 2.02-4.6 6.41-3.92-7.64 3.5-.79zM149.13 406.45h8.37l.56-19.37h-8.37l-.56 19.37zM93.01 381.5l7.69 3.28 10.07-16.76-7.7-3.28-10.06 16.76z"/><path d="M102.18 383.64l-8-4.92a.66.66 0 00-.87.14l-4.81 5.77a1.35 1.35 0 00.37 2c2.82 1.67 4.26 2.33 7.78 4.49 2.17 1.34 5.19 3.5 8.18 5.34s5-1 3.89-2.05c-4.85-4.63-4.71-6.83-5.62-9.57a2.15 2.15 0 00-.92-1.2zM157.78 405.48h-9.39a.67.67 0 00-.67.57l-1.07 7.44A1.33 1.33 0 00148 415c3.28-.05 4.86-.25 9-.25 2.54 0 7.8.27 11.31.27s3.69-3.47 2.23-3.79c-6.55-1.41-9.13-3.35-11.34-5.2a2.17 2.17 0 00-1.42-.55z" fill="#263238"/><path opacity=".2" d="M158.05 387.09l-.28 9.98h-8.37l.29-9.98h8.36zM103.07 364.75l7.69 3.27-5.19 8.64-7.69-3.28 5.19-8.63z"/><path d="M167.78 167.73s4 1.4-4 50.47h-34c.57-13.82.59-22.34-6-50.71a100 100 0 0114.42-1.9 107.26 107.26 0 0115.43 0c6.64.6 14.15 2.14 14.15 2.14z" fill="#407bff"/><path d="M167.78 167.73s4 1.4-4 50.47h-34c.57-13.82.59-22.34-6-50.71a100 100 0 0114.42-1.9 107.26 107.26 0 0115.43 0c6.64.6 14.15 2.14 14.15 2.14z" fill="#fff" opacity=".4"/><path d="M138.22 165.58a110.17 110.17 0 0115.43 0c.83.08 1.68.17 2.52.27a4.12 4.12 0 01.47 3.61c-1.09 2.69-5 3-7.84 3-10.51 0-12.29-6.14-12.36-6.4l-.1-.37z" fill="#fff"/><path d="M139.75 148.22c1 5 1.95 14.06-1.53 17.37 0 0 1.36 5 10.58 5 10.14 0 4.85-5 4.85-5-5.54-1.32-5.39-5.43-4.43-9.28z" fill="#ffc3bd"/><path d="M140.76 144.69c-1.19 3.93.46 13.23 2.91 16.83-4.83-2.77-6.46-11.21-6.46-11.21z" fill="#263238"/><path d="M143.61 151.52l5.61 4.78a14.72 14.72 0 00-.48 2.74c-2.11-.31-5-2.63-5.24-4.84a7.52 7.52 0 01.11-2.68z" opacity=".2"/><path d="M135.17 139.36c1.94 8.07 2.58 11.53 7.44 15 7.31 5.21 16.8 1.07 17.31-7.42.46-7.64-2.78-19.55-11.33-21.39a11.32 11.32 0 00-13.42 13.81z" fill="#ffc3bd"/><path d="M163.79 218.2s6.59 64.42 6 89.92c-.57 26.52-10.29 87-10.29 87h-11.3s1.79-58.95.79-85c-1.09-28.4-10.11-91.94-10.11-91.94z" fill="#407bff"/><path d="M163.79 218.2s6.59 64.42 6 89.92c-.57 26.52-10.29 87-10.29 87h-11.3s1.79-58.95.79-85c-1.09-28.4-10.11-91.94-10.11-91.94z" opacity=".4"/><path fill="#407bff" d="M147.26 395.54h13.26l.98-4.23-14.86-.52.62 4.75z"/><path d="M149.14 234.23c8.34 16.78 1.67 47.39-1.28 58.78-1.51-17.1-4.06-38-6.05-53.37 1.26-8.64 3.48-13.15 7.33-5.41z" opacity=".2"/><path d="M154.82 218.2s-7.7 67-13.51 88.47c-6.89 25.53-33.12 69-33.12 69l-10.49-4.46s16.23-49.36 21.51-62.81c11.25-28.7 1.62-71.47 10.61-90.2z" fill="#407bff"/><path d="M154.82 218.2s-7.7 67-13.51 88.47c-6.89 25.53-33.12 69-33.12 69l-10.49-4.46s16.23-49.36 21.51-62.81c11.25-28.7 1.62-71.47 10.61-90.2z" opacity=".4"/><path fill="#407bff" d="M96.25 371.24l13.02 5.54 3.13-3.5-15.02-7.21-1.13 5.17z"/><path d="M148 139.47c.12.66.56 1.14 1 1.06s.69-.68.57-1.34-.56-1.14-1-1.07-.74.68-.57 1.35zM155.46 138.15c.11.66.56 1.14 1 1.06s.7-.68.58-1.34-.56-1.14-1-1.07-.7.68-.58 1.35z" fill="#263238"/><path d="M155.85 136.88l1.51-.75s-.6 1.39-1.51.75z" fill="#263238"/><path d="M153.67 139.64a17.88 17.88 0 003.12 3.82 2.92 2.92 0 01-2.29.86z" fill="#ed847e"/><path d="M151.49 147.45a6.57 6.57 0 001.13-.1.2.2 0 10-.07-.39 5.32 5.32 0 01-4.65-1.31.2.2 0 00-.28 0 .19.19 0 000 .28 5.54 5.54 0 003.87 1.52zM138 134.63a59.14 59.14 0 001 6.33s5-6.33 5.83-9.72a14.23 14.23 0 01-1.15 3.86s6.73-1.47 7.39-5.91a28.24 28.24 0 01-.66 5.91s6.42-2.52 5.83-6.78-10.45-5.91-15-4.47-9 6.11-7.66 12.53 3.91 8.83 3.91 8.83-1.85-6.47.51-10.58z" fill="#263238"/><path d="M134.82 145.44a6.06 6.06 0 003.28 3.27c2 .8 3.19-.91 2.84-2.89-.31-1.79-1.72-4.35-3.79-4.31a2.73 2.73 0 00-2.33 3.93z" fill="#ffc3bd"/><path d="M139.21 131.55c-1 4 1.08 13.2 3.7 16.67-5-2.53-7-10.89-7-10.89zM145.26 137.19a.4.4 0 00.24-.2 3.15 3.15 0 012.26-1.76.41.41 0 00.35-.44.39.39 0 00-.44-.35 3.93 3.93 0 00-2.88 2.19.4.4 0 00.47.56zM158.19 134.09a.35.35 0 00.27-.11.4.4 0 000-.56 4 4 0 00-3.39-1.26.4.4 0 00-.32.47.4.4 0 00.46.31 3.15 3.15 0 012.67 1 .4.4 0 00.31.15z" fill="#263238"/><path d="M127.93 179.36c-1.39 4.39-2.72 9-3.85 13.54a102.19 102.19 0 00-2.49 13.63l-.08.84v.57a13 13 0 00.11 1.41 32.18 32.18 0 00.55 3.26c.47 2.23 1 4.53 1.68 6.81s1.26 4.6 1.94 6.9l2 6.9-3.71 1.53c-2.28-4.36-4.26-8.8-6.11-13.38-.89-2.3-1.76-4.62-2.48-7.07-.36-1.22-.7-2.47-1-3.83a18.82 18.82 0 01-.3-2.18v-2.25a65.39 65.39 0 01.7-7.61c.33-2.5.82-4.94 1.35-7.37a122.63 122.63 0 014-14.37z" fill="#ffc3bd"/><path d="M123.8 167.49c-3.4 1-7.49 12.75-7.49 12.75l13.2 9.44s4.82-9.78 3.39-14.18c-1.49-4.58-5.21-9.19-9.1-8.01z" fill="#407bff"/><path d="M123.8 167.49c-3.4 1-7.49 12.75-7.49 12.75l13.2 9.44s4.82-9.78 3.39-14.18c-1.49-4.58-5.21-9.19-9.1-8.01z" fill="#fff" opacity=".4"/><path d="M105.56 386.82a1.17 1.17 0 00.71-.7.7.7 0 000-.68c-.6-.88-3.63-.81-4-.8a.2.2 0 00-.18.12.2.2 0 000 .21c.79.79 2.27 2.08 3.31 1.88zm-2.81-1.82c1.21 0 2.83.17 3.15.64a.29.29 0 010 .3.78.78 0 01-.55.49c-.55.14-1.51-.43-2.6-1.43z" fill="#407bff"/><path d="M103.64 384.79c.92-.29 1.9-.8 2.11-1.37a.7.7 0 00-.28-.82 1 1 0 00-.85-.21c-1.19.21-2.47 2.25-2.52 2.34a.2.2 0 000 .2.21.21 0 00.17.1 4.81 4.81 0 001.37-.24zm.92-2h.13a.65.65 0 01.54.13c.2.16.18.28.15.37-.2.55-1.72 1.21-2.73 1.34a4.93 4.93 0 011.91-1.82zM160.92 406.94a3.17 3.17 0 002-.51 1.13 1.13 0 00.36-1 .64.64 0 00-.34-.52c-1-.56-4.35 1.14-4.73 1.33a.2.2 0 000 .37 13.51 13.51 0 002.71.33zm1.49-1.73a.76.76 0 01.37.07.25.25 0 01.13.22.7.7 0 01-.22.63c-.51.46-1.89.54-3.74.23a10.81 10.81 0 013.46-1.15z" fill="#407bff"/><path d="M158.33 406.65h.08c1-.45 3-2.25 2.82-3.2 0-.23-.2-.5-.75-.56a1.44 1.44 0 00-1.1.34c-1 .88-1.24 3.13-1.25 3.22a.21.21 0 00.09.18.15.15 0 00.11.02zm2-3.39h.12c.36 0 .39.19.39.23.1.57-1.24 2-2.26 2.61a4.59 4.59 0 011.07-2.58 1 1 0 01.67-.26z" fill="#407bff"/><path d="M129.31 216.21l-.86 3c-.12.23.16.47.55.47h35c.31 0 .56-.15.58-.34l.31-3c0-.21-.25-.39-.58-.39h-34.44a.63.63 0 00-.56.26z" fill="#263238"/><path d="M133.93 220.05H133c-.18 0-.32-.09-.31-.21l.43-4c0-.11.18-.21.36-.21h.92c.19 0 .32.1.31.21l-.43 4c0 .16-.16.21-.35.21z" fill="#407bff"/><path d="M133.93 220.05H133c-.18 0-.32-.09-.31-.21l.43-4c0-.11.18-.21.36-.21h.92c.19 0 .32.1.31.21l-.43 4c0 .16-.16.21-.35.21z" opacity=".4"/><path d="M161.36 220.05h-.92c-.18 0-.32-.09-.31-.21l.44-4c0-.11.17-.21.35-.21h.92c.19 0 .33.1.31.21l-.43 4c-.01.16-.17.21-.36.21z" fill="#407bff"/><path d="M161.36 220.05h-.92c-.18 0-.32-.09-.31-.21l.44-4c0-.11.17-.21.35-.21h.92c.19 0 .33.1.31.21l-.43 4c-.01.16-.17.21-.36.21z" opacity=".4"/><path d="M147.65 220.05h-.92c-.19 0-.33-.09-.31-.21l.43-4c0-.11.17-.21.36-.21h.92c.18 0 .32.1.31.21l-.43 4c-.01.16-.18.21-.36.21z" fill="#407bff"/><path d="M147.65 220.05h-.92c-.19 0-.33-.09-.31-.21l.43-4c0-.11.17-.21.36-.21h.92c.18 0 .32.1.31.21l-.43 4c-.01.16-.18.21-.36.21z" opacity=".4"/><path d="M148.34 138.19l1.51-.74s-.6 1.39-1.51.74z" fill="#263238"/><path d="M127.51 232.09l7.17 5.5-8.31 1.83s-3.53-4-2.31-7.3z" fill="#ffc3bd"/><path fill="#ffc3bd" d="M136.44 244.4l-7.04 1.15-3.84-7.22 9.12-.74 1.76 6.81z"/></g></svg>